      <svg
        width="40"
        height="40"
        viewBox="0 0 40 40"
        fill="none"
        xmlns="http://www.w3.org/2000/svg"
      >
        <g id="Logo">
          <path
            id="BG"
            d="M0 8C0 3.58172 3.58172 0 8 0H32C36.4183 0 40 3.58172 40 8V32C40 36.4183 36.4183 40 32 40H8C3.58172 40 0 36.4183 0 32V8Z"
            fill="#0080FF"
          ></path>
          <path
            id="Rectangle"
            fill-rule="evenodd"
            clip-rule="evenodd"
            d="M10.8334 30V20C15.8357 20 16.6667 21.775 16.6667 24.1667V30H10.8334Z"
            fill="white"
          ></path>
          <path
            id="Combined Shape"
            fill-rule="evenodd"
            clip-rule="evenodd"
            d="M20.8333 10C23.3333 16.6667 23.3333 23.3333 20.8333 30H25.8333C27.4999 21.6667 26.6666 16.6667 23.3333 10H20.8333ZM24.9988 10C27.242 12.9729 29.474 18.5972 29.3286 26.8729C30.7869 21.2486 30.4552 15.6243 28.3333 10H24.9988Z"
            fill="white"
          ></path>
          <path
            id="Oval"
            fill-rule="evenodd"
            clip-rule="evenodd"
            d="M16.6667 12.9167C16.6667 11.3058 15.3609 10 13.7501 10C12.1393 10 10.8334 11.3058 10.8334 12.9167C10.8334 14.5275 12.1393 15.8333 13.7501 15.8333C15.3609 15.8333 16.6667 14.5275 16.6667 12.9167Z"
            fill="white"
          ></path>
        </g>
      </svg>